<svg width="48" height="48" viewBox="0 0 48 48" fill="none" xmlns="http://www.w3.org/2000/svg">
<g id="vuesax/linear/discover">
<g id="discover">
<path id="Vector" d="M35.6002 4.2L15.7402 9.18C12.8402 9.9 9.90018 12.84 9.18018 15.74L4.20018 35.6C2.70018 41.6 6.38018 45.3 12.4002 43.8L32.2602 38.84C35.1402 38.12 38.1002 35.16 38.8202 32.28L43.8002 12.4C45.3002 6.4 41.6002 2.7 35.6002 4.2Z" stroke="#292D32" strokeWidth="1.5" strokeLinecap="round" strokeLinejoin="round"/>
<path id="Vector_2" d="M24 31C27.866 31 31 27.866 31 24C31 20.134 27.866 17 24 17C20.134 17 17 20.134 17 24C17 27.866 20.134 31 24 31Z" stroke="#292D32" strokeWidth="1.5" strokeLinecap="round" strokeLinejoin="round"/>
</g>
</g>
</svg>
