<svg width="48" height="48" viewBox="0 0 48 48" fill="none" xmlns="http://www.w3.org/2000/svg">
<path d="M43.8603 13.52L37.1203 40.5801C36.6403 42.6001 34.8403 44 32.7603 44H6.48026C3.46026 44 1.30029 41.0399 2.20029 38.1399L10.6203 11.1001C11.2003 9.2201 12.9403 7.91992 14.9003 7.91992H39.5003C41.4003 7.91992 42.9803 9.07993 43.6403 10.6799C44.0203 11.5399 44.1003 12.52 43.8603 13.52Z" stroke="#292D32" strokeWidth="1.5" stroke-miterlimit="10"/>
<path d="M32 44H41.56C44.14 44 46.16 41.82 45.98 39.24L44 12" stroke="#292D32" strokeWidth="1.5" stroke-miterlimit="10" strokeLinecap="round" strokeLinejoin="round"/>
<path d="M19.3594 12.76L21.4394 4.12012" stroke="#292D32" strokeWidth="1.5" stroke-miterlimit="10" strokeLinecap="round" strokeLinejoin="round"/>
<path d="M32.7598 12.78L34.6398 4.1001" stroke="#292D32" strokeWidth="1.5" stroke-miterlimit="10" strokeLinecap="round" strokeLinejoin="round"/>
<path d="M15.4004 24H31.4004" stroke="#292D32" strokeWidth="1.5" stroke-miterlimit="10" strokeLinecap="round" strokeLinejoin="round"/>
<path d="M13.4004 32H29.4004" stroke="#292D32" strokeWidth="1.5" stroke-miterlimit="10" strokeLinecap="round" strokeLinejoin="round"/>
</svg>
