<svg width="49" height="48" viewBox="0 0 49 48" fill="none" xmlns="http://www.w3.org/2000/svg">
<path d="M36.5002 14.32C36.3802 14.3 36.2402 14.3 36.1202 14.32C33.3602 14.22 31.1602 11.96 31.1602 9.16C31.1602 6.3 33.4602 4 36.3202 4C39.1802 4 41.4801 6.32 41.4801 9.16C41.4601 11.96 39.2602 14.22 36.5002 14.32Z" stroke="#292D32" strokeWidth="1.5" strokeLinecap="round" strokeLinejoin="round"/>
<path d="M34.4409 28.88C37.1809 29.34 40.2009 28.86 42.3209 27.44C45.1409 25.56 45.1409 22.48 42.3209 20.6C40.1809 19.18 37.1209 18.7 34.3809 19.18" stroke="#292D32" strokeWidth="1.5" strokeLinecap="round" strokeLinejoin="round"/>
<path d="M12.4409 14.32C12.5609 14.3 12.7009 14.3 12.8209 14.32C15.5809 14.22 17.7809 11.96 17.7809 9.16C17.7809 6.3 15.4809 4 12.6209 4C9.76094 4 7.46094 6.32 7.46094 9.16C7.48094 11.96 9.68094 14.22 12.4409 14.32Z" stroke="#292D32" strokeWidth="1.5" strokeLinecap="round" strokeLinejoin="round"/>
<path d="M14.5009 28.88C11.7609 29.34 8.74086 28.86 6.62086 27.44C3.80086 25.56 3.80086 22.48 6.62086 20.6C8.76086 19.18 11.8209 18.7 14.5609 19.18" stroke="#292D32" strokeWidth="1.5" strokeLinecap="round" strokeLinejoin="round"/>
<path d="M24.5002 29.26C24.3802 29.24 24.2402 29.24 24.1202 29.26C21.3602 29.16 19.1602 26.9 19.1602 24.1C19.1602 21.24 21.4602 18.94 24.3202 18.94C27.1802 18.94 29.4802 21.26 29.4802 24.1C29.4602 26.9 27.2602 29.18 24.5002 29.26Z" stroke="#292D32" strokeWidth="1.5" strokeLinecap="round" strokeLinejoin="round"/>
<path d="M18.6795 35.56C15.8595 37.44 15.8595 40.52 18.6795 42.4C21.8795 44.54 27.1195 44.54 30.3195 42.4C33.1395 40.52 33.1395 37.44 30.3195 35.56C27.1395 33.44 21.8795 33.44 18.6795 35.56Z" stroke="#292D32" strokeWidth="1.5" strokeLinecap="round" strokeLinejoin="round"/>
</svg>
