<svg width="64" height="64" viewBox="0 0 64 64" fill="none" xmlns="http://www.w3.org/2000/svg">
<path d="M21.574 31.0133H9.06732C9.28065 18.56 11.734 16.5067 19.3873 11.9733C20.2673 11.44 20.5607 10.32 20.0273 9.41334C19.5207 8.53334 18.374 8.24 17.494 8.77334C8.48065 14.1067 5.33398 17.36 5.33398 32.8533V47.2267C5.33398 51.7867 9.04065 55.4667 13.574 55.4667H21.574C26.2673 55.4667 29.814 51.92 29.814 47.2267V39.2267C29.814 34.56 26.2673 31.0133 21.574 31.0133Z" fill="#052C42"/>
<path d="M50.4268 31.0133H37.9202C38.1335 18.56 40.5868 16.5067 48.2402 11.9733C49.1202 11.44 49.4135 10.32 48.8802 9.41334C48.3468 8.53334 47.2268 8.24 46.3202 8.77334C37.3068 14.1067 34.1602 17.36 34.1602 32.88V47.2533C34.1602 51.8133 37.8668 55.4933 42.4002 55.4933H50.4002C55.0935 55.4933 58.6402 51.9467 58.6402 47.2533V39.2533C58.6668 34.56 55.1202 31.0133 50.4268 31.0133Z" fill="#052C42"/>
</svg>
