<svg width="48" height="48" viewBox="0 0 48 48" fill="none" xmlns="http://www.w3.org/2000/svg">
<path d="M26.0191 5.84001L37.8191 11.08C41.2191 12.58 41.2191 15.06 37.8191 16.56L26.0191 21.8C24.6791 22.4 22.4791 22.4 21.1391 21.8L9.33906 16.56C5.93906 15.06 5.93906 12.58 9.33906 11.08L21.1391 5.84001C22.4791 5.24001 24.6791 5.24001 26.0191 5.84001Z" stroke="#292D32" strokeWidth="1.5" strokeLinecap="round" strokeLinejoin="round"/>
<path d="M6 22C6 23.68 7.26 25.62 8.8 26.3L22.38 32.34C23.42 32.8 24.6 32.8 25.62 32.34L39.2 26.3C40.74 25.62 42 23.68 42 22" stroke="#292D32" strokeWidth="1.5" strokeLinecap="round" strokeLinejoin="round"/>
<path d="M6 32C6 33.86 7.1 35.54 8.8 36.3L22.38 42.34C23.42 42.8 24.6 42.8 25.62 42.34L39.2 36.3C40.9 35.54 42 33.86 42 32" stroke="#292D32" strokeWidth="1.5" strokeLinecap="round" strokeLinejoin="round"/>
</svg>
