<svg width="51" height="50" viewBox="0 0 51 50" fill="none" xmlns="http://www.w3.org/2000/svg">
<path d="M35.396 19L31.5418 15.1459C30.0835 13.6875 28.0835 13.7709 27.1043 15.3125L24.9585 18.7084L31.8127 25.5625L35.2085 23.4167C36.6877 22.5 36.771 20.3542 35.396 19Z" stroke="#292D32" stroke-width="2" stroke-linecap="round" stroke-linejoin="round"/>
<path d="M24.9572 18.7087L19.9781 18.417C17.1864 18.2504 16.2281 19.1045 15.9156 21.7504L14.6656 32.3129C14.3947 34.542 15.9989 36.1254 18.2281 35.8754L28.7906 34.6254C31.4364 34.3129 32.3947 33.3545 32.1239 30.5629L31.8322 25.5837" stroke="#292D32" stroke-width="2" stroke-linecap="round" stroke-linejoin="round"/>
<path d="M16.104 34.4167L19.9582 30.5625" stroke="#292D32" stroke-width="2" stroke-linecap="round" stroke-linejoin="round"/>
<path d="M19.2498 45.8334H31.7498C42.1665 45.8334 46.3332 41.6667 46.3332 31.25V18.75C46.3332 8.33335 42.1665 4.16669 31.7498 4.16669H19.2498C8.83317 4.16669 4.6665 8.33335 4.6665 18.75V31.25C4.6665 41.6667 8.83317 45.8334 19.2498 45.8334Z" stroke="#292D32" stroke-width="2" stroke-linecap="round" stroke-linejoin="round"/>
</svg>
